<?xml version="1.0" encoding="UTF-8" standalone="no"?>
<!-- Created with Inkscape (http://www.inkscape.org/) -->

<svg
   width="169.36359"
   height="170.18239"
   viewBox="0 0 169.36359 170.18239"
   version="1.1"
   id="svg1"
   xmlns="http://www.w3.org/2000/svg"
   xmlns:svg="http://www.w3.org/2000/svg">
  <defs
     id="defs1" />
  <g
     id="layer1"
     transform="translate(-4.9586777,-4.7597656)">
    <rect
       style="fill:#80b3ff;stroke:none"
       id="rect21"
       width="49.586777"
       height="170.18182"
       x="4.9586778"
       y="4.7603307" />
    <path
       id="rect21-8"
       style="fill:#2a7fff;stroke:none"
       d="M 60.388672,4.8359283 V 174.74414 H 109.97461 V 75.607422 c 4.69096,1.026644 9.56864,1.548877 14.47461,1.548828 27.54378,4.2e-5 49.87259,-16.114124 49.87305,-35.992188 -4.6e-4,-19.878063 -22.82535,-36.4043386 -50.36915,-36.4042964 -3.97758,-3.98e-5 -10.83972,0.010714 -13.97851,0.015625 z M 123.9668,9.8457031 c 24.25793,2.272e-4 45.0358,13.9347089 45.03515,31.4414059 -8.5e-4,17.505935 -19.665,31.697039 -43.92187,31.697266 -5.15599,3.22e-4 -10.26934,-0.653765 -15.10547,-1.931641 V 9.8847656 c 3.15845,-0.013793 9.87027,-0.039321 13.99219,-0.039063 z" />
    <path
       style="fill:#003380;stroke:none"
       d="M 4.9624711,82.428578 54.716077,174.84655 88.937794,123.93288 123.93288,174.7821 c 0,0 48.03734,-86.256198 50.0114,-90.226749 0.98642,-1.984048 -0.3159,-3.439771 -2.42183,-3.417369 -2.63597,0.02804 -3.62266,0.294594 -5.21052,3.374114 -2.75693,5.34683 -22.40026,43.094304 -22.40026,43.094304 L 110.22247,82.440498 78.948404,127.67085 54.458287,82.235235 Z"
       id="path22" />
    <path
       id="path29"
       style="fill:#80b3ff;stroke:none"
       d="m 96.202503,111.00862 c 0,0 -42.383894,60.76886 -43.376539,62.04431 -0.992645,1.27545 0.199178,1.79652 1.513479,1.80436 1.314301,0.008 1.723579,-0.21128 2.76246,-1.61112 1.038882,-1.39985 4.545913,-6.69068 4.545913,-6.69068 h 34.886718 l 5.101566,8.15234 36.27735,0.0488 z m -16.351562,28.88085 14.763672,23.59766 H 63.743519 Z" />
  </g>
</svg>
